<?xml version="1.0" encoding="UTF-8" standalone="no"?>
<svg width="458px" height="205px" viewBox="0 0 458 205" version="1.1" xmlns="http://www.w3.org/2000/svg" xmlns:xlink="http://www.w3.org/1999/xlink" xmlns:sketch="http://www.bohemiancoding.com/sketch/ns">
    <!-- Generator: Sketch 3.3.3 (12072) - http://www.bohemiancoding.com/sketch -->
    <title>Untitled 2</title>
    <desc>Created with Sketch.</desc>
    <defs></defs>
    <g id="Page-1" stroke="none" stroke-width="1" fill="none" fill-rule="evenodd" sketch:type="MSPage">
        <path d="M447,10.7539062 L10,10.7539062 L10,10.7539062 L10,194 L10,194 L447,194 L447,10.7539062 Z M456.621094,1 L456.621094,0.75390625 L-2.7809386e-14,0.75390625 L0,5.87695312 L0,199 L-2.84217094e-14,204 L451.810547,204 L457,204 L457,1 L456.621094,1 Z" id="Rectangle-2" fill="#000000" sketch:type="MSShapeGroup"></path>
        <path d="M52.083,60.352 C52.275001,60.352 52.4429993,60.2980005 52.587,60.19 C52.7310008,60.0819995 52.803,59.9200011 52.803,59.704 L52.803,43.288 C52.803,43.0719989 52.7310008,42.9220004 52.587,42.838 C52.4429993,42.7539996 52.275001,42.712 52.083,42.712 L52.083,42.064 L58.815,42.064 L58.815,42.712 C58.6949994,42.712 58.5690007,42.7479996 58.437,42.82 C58.3049994,42.8920004 58.239,42.9999993 58.239,43.144 C58.239,43.2640006 58.2869996,43.419999 58.383,43.612 C58.4790005,43.804001 58.5869994,44.0079989 58.707,44.224 L63.855,53.584 L69.039,44.332 C69.2070009,44.0199984 69.3329996,43.7740009 69.417,43.594 C69.5010005,43.4139991 69.543,43.2520007 69.543,43.108 C69.543,42.8439987 69.3870016,42.712 69.075,42.712 L69.075,42.064 L75.735,42.064 L75.735,42.712 C75.5429991,42.712 75.3750008,42.7539996 75.231,42.838 C75.0869993,42.9220004 75.015,43.0719989 75.015,43.288 L75.015,59.704 C75.015,59.9200011 75.0869993,60.0819995 75.231,60.19 C75.3750008,60.2980005 75.5429991,60.352 75.735,60.352 L75.735,61 L70.083,61 L70.083,60.352 C70.7310033,60.352 71.055,60.1360022 71.055,59.704 L71.055,47.752 L70.983,47.752 L63.747,61 L63.639,61 L56.547,47.716 L56.475,47.716 L56.475,59.704 C56.475,60.1360022 56.8109967,60.352 57.483,60.352 L57.483,61 L52.083,61 L52.083,60.352 Z M94.861,53.656 L91.837,46.96 L88.453,53.656 L94.861,53.656 Z M81.289,60.352 C81.6010016,60.3039998 81.8469991,60.1480013 82.027,59.884 C82.2070009,59.6199987 82.3809992,59.3200017 82.549,58.984 L89.209,44.98 C89.3770009,44.6679984 89.5269994,44.3800013 89.659,44.116 C89.7910007,43.8519987 89.857,43.624001 89.857,43.432 C89.857,43.1919988 89.7730009,43.0240005 89.605,42.928 C89.4369992,42.8319995 89.257001,42.7600002 89.065,42.712 L89.065,42.064 L95.149,42.064 L95.149,42.712 C94.9809992,42.7600002 94.8130009,42.8259996 94.645,42.91 C94.4769992,42.9940004 94.393,43.1679987 94.393,43.432 C94.393,43.624001 94.4349996,43.815999 94.519,44.008 C94.6030004,44.200001 94.7289992,44.4519984 94.897,44.764 L102.385,59.416 C102.505001,59.6800013 102.666999,59.8719994 102.871,59.992 C103.075001,60.1120006 103.308999,60.2319994 103.573,60.352 L103.573,61 L97.237,61 L97.237,60.352 C97.3330005,60.352 97.4529993,60.3160004 97.597,60.244 C97.7410007,60.1719996 97.813,60.0640007 97.813,59.92 C97.813,59.6799988 97.717001,59.3680019 97.525,58.984 L96.157,56.32 L87.373,56.32 L86.077,58.876 C85.8369988,59.3800025 85.717,59.7399989 85.717,59.956 C85.717,60.2200013 85.9449977,60.352 86.401,60.352 L86.401,61 L81.289,61 L81.289,60.352 Z M120.431,50.488 C121.295004,50.488 122.014997,50.4220007 122.591,50.29 C123.167003,50.1579993 123.622998,49.9720012 123.959,49.732 C124.295002,49.4919988 124.534999,49.2100016 124.679,48.886 C124.823001,48.5619984 124.895,48.2080019 124.895,47.824 C124.895,47.4399981 124.823001,47.0860016 124.679,46.762 C124.534999,46.4379984 124.295002,46.1560012 123.959,45.916 C123.622998,45.6759988 123.167003,45.4900007 122.591,45.358 C122.014997,45.2259993 121.295004,45.16 120.431,45.16 L114.203,45.16 L114.203,50.488 L120.431,50.488 Z M121.367,42.064 C122.519006,42.064 123.562995,42.165999 124.499,42.37 C125.435005,42.574001 126.238997,42.8979978 126.911,43.342 C127.583003,43.7860022 128.098998,44.3619965 128.459,45.07 C128.819002,45.7780035 128.999,46.6479948 128.999,47.68 C128.999,49.2640079 128.531005,50.4759958 127.595,51.316 C126.658995,52.1560042 125.399008,52.7199986 123.815,53.008 L128.603,59.848 C128.771001,60.0880012 128.968999,60.2319998 129.197,60.28 C129.425001,60.3280002 129.634999,60.352 129.827,60.352 L129.827,61 L123.095,61 L123.095,60.352 C123.311001,60.352 123.496999,60.3160004 123.653,60.244 C123.809001,60.1719996 123.887,60.0760006 123.887,59.956 C123.887,59.8359994 123.839001,59.6980008 123.743,59.542 C123.647,59.3859992 123.503001,59.1760013 123.311,58.912 L119.351,53.296 L114.203,53.296 L114.203,59.704 C114.203,59.9200011 114.280999,60.0819995 114.437,60.19 C114.593001,60.2980005 114.874998,60.352 115.283,60.352 L115.283,61 L109.055,61 L109.055,60.352 C109.751004,60.352 110.099,60.1360022 110.099,59.704 L110.099,43.36 C110.099,42.9279978 109.751004,42.712 109.055,42.712 L109.055,42.064 L121.367,42.064 Z M141.681,42.064 L141.681,42.712 C141.464999,42.712 141.261001,42.7419997 141.069,42.802 C140.876999,42.8620003 140.781,43.0119988 140.781,43.252 C140.781,43.3960007 140.954998,43.7379973 141.303,44.278 C141.651002,44.8180027 142.058998,45.4299966 142.527,46.114 C142.995002,46.7980034 143.480997,47.4999964 143.985,48.22 C144.489003,48.9400036 144.896998,49.5519975 145.209,50.056 L149.421,44.26 C149.613001,43.9719986 149.768999,43.7440008 149.889,43.576 C150.009001,43.4079992 150.069,43.2520007 150.069,43.108 C150.069,42.9399992 149.955001,42.8320002 149.727,42.784 C149.498999,42.7359998 149.289001,42.712 149.097,42.712 L149.097,42.064 L155.397,42.064 L155.397,42.712 C155.204999,42.712 155.025001,42.7299998 154.857,42.766 C154.688999,42.8020002 154.515001,42.8859993 154.335,43.018 C154.154999,43.1500007 153.963001,43.3419987 153.759,43.594 C153.554999,43.8460013 153.309001,44.1879978 153.021,44.62 L146.901,53.296 L146.901,59.704 C146.901,60.1360022 147.176997,60.352 147.729,60.352 L147.729,61 L142.041,61 L142.041,60.352 C142.257001,60.352 142.436999,60.2980005 142.581,60.19 C142.725001,60.0819995 142.797,59.9200011 142.797,59.704 L142.797,53.296 L135.849,43.576 C135.680999,43.3359988 135.423002,43.1320008 135.075,42.964 C134.726998,42.7959992 134.433001,42.712 134.193,42.712 L134.193,42.064 L141.681,42.064 Z M190.481,45.952 C190.481,45.6879987 190.379001,45.4900007 190.175,45.358 C189.970999,45.2259993 189.617003,45.16 189.113,45.16 L177.449,45.16 L177.449,49.624 L184.505,49.624 C184.985002,49.624 185.356999,49.5760005 185.621,49.48 C185.885001,49.3839995 186.017,49.1680017 186.017,48.832 L186.665,48.832 L186.665,54.016 L186.017,54.016 C186.017,53.4639972 185.885001,53.1100008 185.621,52.954 C185.356999,52.7979992 184.985002,52.72 184.505,52.72 L177.449,52.72 L177.449,59.704 C177.449,59.9200011 177.550999,60.0819995 177.755,60.19 C177.959001,60.2980005 178.216998,60.352 178.529,60.352 L178.529,61 L172.409,61 L172.409,60.352 C173.033003,60.352 173.345,60.1360022 173.345,59.704 L173.345,43.36 C173.345,42.9279978 173.033003,42.712 172.409,42.712 L172.409,42.064 L189.113,42.064 C189.617003,42.064 189.970999,41.9860008 190.175,41.83 C190.379001,41.6739992 190.481,41.4640013 190.481,41.2 L191.129,41.2 L191.129,45.952 L190.481,45.952 Z M207.663,45.16 C206.750995,45.16 205.839005,45.3039986 204.927,45.592 C204.014995,45.8800014 203.193004,46.2939973 202.461,46.834 C201.728996,47.3740027 201.135002,48.039996 200.679,48.832 C200.222998,49.624004 199.995,50.523995 199.995,51.532 C199.995,52.540005 200.222998,53.439996 200.679,54.232 C201.135002,55.024004 201.728996,55.6899973 202.461,56.23 C203.193004,56.7700027 204.014995,57.1839986 204.927,57.472 C205.839005,57.7600014 206.750995,57.904 207.663,57.904 C208.575005,57.904 209.486995,57.7600014 210.399,57.472 C211.311005,57.1839986 212.132996,56.7700027 212.865,56.23 C213.597004,55.6899973 214.190998,55.024004 214.647,54.232 C215.103002,53.439996 215.331,52.540005 215.331,51.532 C215.331,50.523995 215.103002,49.624004 214.647,48.832 C214.190998,48.039996 213.597004,47.3740027 212.865,46.834 C212.132996,46.2939973 211.311005,45.8800014 210.399,45.592 C209.486995,45.3039986 208.575005,45.16 207.663,45.16 L207.663,45.16 Z M207.663,41.848 C208.983007,41.848 210.326993,42.045998 211.695,42.442 C213.063007,42.838002 214.310994,43.431996 215.439,44.224 C216.567006,45.016004 217.490996,46.0179939 218.211,47.23 C218.931004,48.4420061 219.291,49.8759917 219.291,51.532 C219.291,53.1880083 218.931004,54.6219939 218.211,55.834 C217.490996,57.0460061 216.567006,58.047996 215.439,58.84 C214.310994,59.632004 213.063007,60.2079982 211.695,60.568 C210.326993,60.9280018 208.983007,61.108 207.663,61.108 C206.342993,61.108 204.999007,60.9280018 203.631,60.568 C202.262993,60.2079982 201.015006,59.632004 199.887,58.84 C198.758994,58.047996 197.835004,57.0460061 197.115,55.834 C196.394996,54.6219939 196.035,53.1880083 196.035,51.532 C196.035,49.8759917 196.394996,48.4420061 197.115,47.23 C197.835004,46.0179939 198.758994,45.016004 199.887,44.224 C201.015006,43.431996 202.262993,42.838002 203.631,42.442 C204.999007,42.045998 206.342993,41.848 207.663,41.848 L207.663,41.848 Z M237.553,50.488 C238.417004,50.488 239.136997,50.4220007 239.713,50.29 C240.289003,50.1579993 240.744998,49.9720012 241.081,49.732 C241.417002,49.4919988 241.656999,49.2100016 241.801,48.886 C241.945001,48.5619984 242.017,48.2080019 242.017,47.824 C242.017,47.4399981 241.945001,47.0860016 241.801,46.762 C241.656999,46.4379984 241.417002,46.1560012 241.081,45.916 C240.744998,45.6759988 240.289003,45.4900007 239.713,45.358 C239.136997,45.2259993 238.417004,45.16 237.553,45.16 L231.325,45.16 L231.325,50.488 L237.553,50.488 Z M238.489,42.064 C239.641006,42.064 240.684995,42.165999 241.621,42.37 C242.557005,42.574001 243.360997,42.8979978 244.033,43.342 C244.705003,43.7860022 245.220998,44.3619965 245.581,45.07 C245.941002,45.7780035 246.121,46.6479948 246.121,47.68 C246.121,49.2640079 245.653005,50.4759958 244.717,51.316 C243.780995,52.1560042 242.521008,52.7199986 240.937,53.008 L245.725,59.848 C245.893001,60.0880012 246.090999,60.2319998 246.319,60.28 C246.547001,60.3280002 246.756999,60.352 246.949,60.352 L246.949,61 L240.217,61 L240.217,60.352 C240.433001,60.352 240.618999,60.3160004 240.775,60.244 C240.931001,60.1719996 241.009,60.0760006 241.009,59.956 C241.009,59.8359994 240.961,59.6980008 240.865,59.542 C240.769,59.3859992 240.625001,59.1760013 240.433,58.912 L236.473,53.296 L231.325,53.296 L231.325,59.704 C231.325,59.9200011 231.402999,60.0819995 231.559,60.19 C231.715001,60.2980005 231.996998,60.352 232.405,60.352 L232.405,61 L226.177,61 L226.177,60.352 C226.873003,60.352 227.221,60.1360022 227.221,59.704 L227.221,43.36 C227.221,42.9279978 226.873003,42.712 226.177,42.712 L226.177,42.064 L238.489,42.064 Z M265.175,50.488 C266.039004,50.488 266.758997,50.4220007 267.335,50.29 C267.911003,50.1579993 268.366998,49.9720012 268.703,49.732 C269.039002,49.4919988 269.278999,49.2100016 269.423,48.886 C269.567001,48.5619984 269.639,48.2080019 269.639,47.824 C269.639,47.4399981 269.567001,47.0860016 269.423,46.762 C269.278999,46.4379984 269.039002,46.1560012 268.703,45.916 C268.366998,45.6759988 267.911003,45.4900007 267.335,45.358 C266.758997,45.2259993 266.039004,45.16 265.175,45.16 L258.947,45.16 L258.947,50.488 L265.175,50.488 Z M266.111,42.064 C267.263006,42.064 268.306995,42.165999 269.243,42.37 C270.179005,42.574001 270.982997,42.8979978 271.655,43.342 C272.327003,43.7860022 272.842998,44.3619965 273.203,45.07 C273.563002,45.7780035 273.743,46.6479948 273.743,47.68 C273.743,49.2640079 273.275005,50.4759958 272.339,51.316 C271.402995,52.1560042 270.143008,52.7199986 268.559,53.008 L273.347,59.848 C273.515001,60.0880012 273.712999,60.2319998 273.941,60.28 C274.169001,60.3280002 274.378999,60.352 274.571,60.352 L274.571,61 L267.839,61 L267.839,60.352 C268.055001,60.352 268.240999,60.3160004 268.397,60.244 C268.553001,60.1719996 268.631,60.0760006 268.631,59.956 C268.631,59.8359994 268.583,59.6980008 268.487,59.542 C268.391,59.3859992 268.247001,59.1760013 268.055,58.912 L264.095,53.296 L258.947,53.296 L258.947,59.704 C258.947,59.9200011 259.024999,60.0819995 259.181,60.19 C259.337001,60.2980005 259.618998,60.352 260.027,60.352 L260.027,61 L253.799,61 L253.799,60.352 C254.495003,60.352 254.843,60.1360022 254.843,59.704 L254.843,43.36 C254.843,42.9279978 254.495003,42.712 253.799,42.712 L253.799,42.064 L266.111,42.064 Z M299.421,45.952 C299.421,45.6879987 299.319001,45.4900007 299.115,45.358 C298.910999,45.2259993 298.557003,45.16 298.053,45.16 L286.389,45.16 L286.389,49.624 L293.445,49.624 C293.925002,49.624 294.296999,49.5580007 294.561,49.426 C294.825001,49.2939993 294.957,48.9520028 294.957,48.4 L295.605,48.4 L295.605,54.016 L294.957,54.016 C294.957,53.4639972 294.825001,53.1100008 294.561,52.954 C294.296999,52.7979992 293.925002,52.72 293.445,52.72 L286.389,52.72 L286.389,57.688 L298.413,57.688 C298.773002,57.688 299.066999,57.6040008 299.295,57.436 C299.523001,57.2679992 299.637,57.0400014 299.637,56.752 L300.285,56.752 L300.285,61.684 L299.637,61.684 C299.637,61.3239982 299.523001,61.1200002 299.295,61.072 C299.066999,61.0239998 298.773002,61 298.413,61 L281.637,61 L281.637,60.352 C281.805001,60.352 281.954999,60.2980005 282.087,60.19 C282.219001,60.0819995 282.285,59.9200011 282.285,59.704 L282.285,43.36 C282.285,43.1439989 282.219001,42.9820005 282.087,42.874 C281.954999,42.7659995 281.805001,42.712 281.637,42.712 L281.637,42.064 L298.053,42.064 C298.557003,42.064 298.910999,41.9860008 299.115,41.83 C299.319001,41.6739992 299.421,41.4640013 299.421,41.2 L300.069,41.2 L300.069,45.952 L299.421,45.952 Z M308.683,55.06 L309.043,55.24 C309.043,55.4560011 309.091,55.6479992 309.187,55.816 C309.355001,56.1040014 309.684998,56.3859986 310.177,56.662 C310.669002,56.9380014 311.232997,57.1839989 311.869,57.4 C312.505003,57.6160011 313.170997,57.7899993 313.867,57.922 C314.563003,58.0540007 315.186997,58.12 315.739,58.12 C316.147002,58.12 316.674997,58.0900003 317.323,58.03 C317.971003,57.9699997 318.606997,57.844001 319.231,57.652 C319.855003,57.459999 320.394998,57.1960017 320.851,56.86 C321.307002,56.5239983 321.535,56.0800028 321.535,55.528 C321.535,54.9759972 321.325002,54.5680013 320.905,54.304 C320.484998,54.0399987 319.933003,53.8480006 319.249,53.728 C318.564997,53.6079994 317.785004,53.5300002 316.909,53.494 C316.032996,53.4579998 315.139005,53.4040004 314.227,53.332 C313.314995,53.2599996 312.421004,53.1400008 311.545,52.972 C310.668996,52.8039992 309.889003,52.522002 309.205,52.126 C308.520997,51.729998 307.969002,51.1900034 307.549,50.506 C307.128998,49.8219966 306.919,48.9280055 306.919,47.824 C306.919,47.0799963 307.092998,46.3480036 307.441,45.628 C307.789002,44.9079964 308.322996,44.2720028 309.043,43.72 C309.763004,43.1679972 310.674994,42.7180017 311.779,42.37 C312.883006,42.0219983 314.178993,41.848 315.667,41.848 C316.939006,41.848 318.042995,41.943999 318.979,42.136 C319.915005,42.328001 320.724997,42.5319989 321.409,42.748 C322.093003,42.9640011 322.668998,43.167999 323.137,43.36 C323.605002,43.552001 323.994998,43.648 324.307,43.648 C324.643002,43.648 324.882999,43.5760007 325.027,43.432 L325.459,43.72 L322.975,48.22 L322.615,48.076 C322.567,47.7399983 322.471001,47.4640011 322.327,47.248 C322.134999,46.9599986 321.817002,46.6780014 321.373,46.402 C320.928998,46.1259986 320.407003,45.8800011 319.807,45.664 C319.206997,45.4479989 318.559003,45.2740007 317.863,45.142 C317.166997,45.0099993 316.471003,44.944 315.775,44.944 C315.246997,44.944 314.701003,44.9859996 314.137,45.07 C313.572997,45.1540004 313.063002,45.2799992 312.607,45.448 C312.150998,45.6160008 311.773001,45.8379986 311.473,46.114 C311.172998,46.3900014 311.023,46.731998 311.023,47.14 C311.023,47.7160029 311.232998,48.1479986 311.653,48.436 C312.073002,48.7240014 312.624997,48.9399993 313.309,49.084 C313.993003,49.2280007 314.772996,49.3239998 315.649,49.372 C316.525004,49.4200002 317.418995,49.4799996 318.331,49.552 C319.243005,49.6240004 320.136996,49.7499991 321.013,49.93 C321.889004,50.1100009 322.668997,50.397998 323.353,50.794 C324.037003,51.190002 324.588998,51.7239966 325.009,52.396 C325.429002,53.0680034 325.639,53.9439946 325.639,55.024 C325.639,56.2720062 325.309003,57.291996 324.649,58.084 C323.988997,58.876004 323.167005,59.4999977 322.183,59.956 C321.198995,60.4120023 320.137006,60.7179992 318.997,60.874 C317.856994,61.0300008 316.795005,61.108 315.811,61.108 C314.442993,61.108 313.297005,61.0300008 312.373,60.874 C311.448995,60.7179992 310.681003,60.5260011 310.069,60.298 C309.456997,60.0699989 308.971002,59.8660009 308.611,59.686 C308.250998,59.5059991 307.939001,59.416 307.675,59.416 C307.506999,59.416 307.351001,59.511999 307.207,59.704 L306.703,59.416 L308.683,55.06 Z M342.857,59.704 C342.857,60.1360022 343.120997,60.352 343.649,60.352 L343.649,61 L338.105,61 L338.105,60.352 C338.273001,60.352 338.422999,60.2980005 338.555,60.19 C338.687001,60.0819995 338.753,59.9200011 338.753,59.704 L338.753,45.376 L332.813,45.376 C332.596999,45.376 332.387001,45.4359994 332.183,45.556 C331.978999,45.6760006 331.877,45.9039983 331.877,46.24 L331.229,46.24 L331.229,41.2 L331.877,41.2 C331.877,41.5360017 331.978999,41.7639994 332.183,41.884 C332.387001,42.0040006 332.596999,42.064 332.813,42.064 L348.797,42.064 C349.013001,42.064 349.222999,42.0040006 349.427,41.884 C349.631001,41.7639994 349.733,41.5360017 349.733,41.2 L350.381,41.2 L350.381,46.24 L349.733,46.24 C349.733,45.9039983 349.631001,45.6760006 349.427,45.556 C349.222999,45.4359994 349.013001,45.376 348.797,45.376 L342.857,45.376 L342.857,59.704 Z M374.331,45.952 C374.331,45.6879987 374.229001,45.4900007 374.025,45.358 C373.820999,45.2259993 373.467002,45.16 372.963,45.16 L361.299,45.16 L361.299,49.624 L368.355,49.624 C368.835002,49.624 369.206999,49.5580007 369.471,49.426 C369.735001,49.2939993 369.867,48.9520028 369.867,48.4 L370.515,48.4 L370.515,54.016 L369.867,54.016 C369.867,53.4639972 369.735001,53.1100008 369.471,52.954 C369.206999,52.7979992 368.835002,52.72 368.355,52.72 L361.299,52.72 L361.299,57.688 L373.323,57.688 C373.683002,57.688 373.976999,57.6040008 374.205,57.436 C374.433001,57.2679992 374.547,57.0400014 374.547,56.752 L375.195,56.752 L375.195,61.684 L374.547,61.684 C374.547,61.3239982 374.433001,61.1200002 374.205,61.072 C373.976999,61.0239998 373.683002,61 373.323,61 L356.547,61 L356.547,60.352 C356.715001,60.352 356.864999,60.2980005 356.997,60.19 C357.129001,60.0819995 357.195,59.9200011 357.195,59.704 L357.195,43.36 C357.195,43.1439989 357.129001,42.9820005 356.997,42.874 C356.864999,42.7659995 356.715001,42.712 356.547,42.712 L356.547,42.064 L372.963,42.064 C373.467002,42.064 373.820999,41.9860008 374.025,41.83 C374.229001,41.6739992 374.331,41.4640013 374.331,41.2 L374.979,41.2 L374.979,45.952 L374.331,45.952 Z M393.349,50.488 C394.213004,50.488 394.932997,50.4220007 395.509,50.29 C396.085003,50.1579993 396.540998,49.9720012 396.877,49.732 C397.213002,49.4919988 397.452999,49.2100016 397.597,48.886 C397.741001,48.5619984 397.813,48.2080019 397.813,47.824 C397.813,47.4399981 397.741001,47.0860016 397.597,46.762 C397.452999,46.4379984 397.213002,46.1560012 396.877,45.916 C396.540998,45.6759988 396.085003,45.4900007 395.509,45.358 C394.932997,45.2259993 394.213004,45.16 393.349,45.16 L387.121,45.16 L387.121,50.488 L393.349,50.488 Z M394.285,42.064 C395.437006,42.064 396.480995,42.165999 397.417,42.37 C398.353005,42.574001 399.156997,42.8979978 399.829,43.342 C400.501003,43.7860022 401.016998,44.3619965 401.377,45.07 C401.737002,45.7780035 401.917,46.6479948 401.917,47.68 C401.917,49.2640079 401.449005,50.4759958 400.513,51.316 C399.576995,52.1560042 398.317008,52.7199986 396.733,53.008 L401.521,59.848 C401.689001,60.0880012 401.886999,60.2319998 402.115,60.28 C402.343001,60.3280002 402.552999,60.352 402.745,60.352 L402.745,61 L396.013,61 L396.013,60.352 C396.229001,60.352 396.414999,60.3160004 396.571,60.244 C396.727001,60.1719996 396.805,60.0760006 396.805,59.956 C396.805,59.8359994 396.757,59.6980008 396.661,59.542 C396.564999,59.3859992 396.421001,59.1760013 396.229,58.912 L392.269,53.296 L387.121,53.296 L387.121,59.704 C387.121,59.9200011 387.198999,60.0819995 387.355,60.19 C387.511001,60.2980005 387.792998,60.352 388.201,60.352 L388.201,61 L381.973,61 L381.973,60.352 C382.669003,60.352 383.017,60.1360022 383.017,59.704 L383.017,43.36 C383.017,42.9279978 382.669003,42.712 381.973,42.712 L381.973,42.064 L394.285,42.064 Z" id="MARY-FORRESTER" fill="#000000" sketch:type="MSShapeGroup"></path>
        <path d="M70.0815687,152.032 C70.0815687,152.860004 70.357566,153.480998 70.9095687,153.895 C71.4615715,154.309002 72.105565,154.516 72.8415687,154.516 L72.8415687,157 L51.3135687,157 L51.3135687,154.516 C53.3375788,154.516 54.3495687,153.688008 54.3495687,152.032 L54.3495687,89.38 C54.3495687,87.7239917 53.3375788,86.896 51.3135687,86.896 L51.3135687,84.412 L72.8415687,84.412 L72.8415687,86.896 C72.105565,86.896 71.4615715,87.1029979 70.9095687,87.517 C70.357566,87.9310021 70.0815687,88.5519959 70.0815687,89.38 L70.0815687,115.6 L98.6475687,93.106 C99.9355752,92.0019945 100.947565,91.1050034 101.683569,90.415 C102.419572,89.7249966 102.787569,89.1500023 102.787569,88.69 C102.787569,88.0459968 102.580571,87.5860014 102.166569,87.31 C101.752567,87.0339986 101.269571,86.896 100.717569,86.896 L100.717569,84.412 L129.697569,84.412 L129.697569,86.896 C128.04156,86.896 126.385577,87.5859931 124.729569,88.966 L92.9895687,114.22 L121.969569,147.754 C123.165575,149.134007 124.568561,150.490993 126.178569,151.825 C127.788577,153.159007 129.375561,154.055998 130.939569,154.516 L130.939569,157 L105.409569,157 L105.409569,154.516 C106.605575,154.516 107.203569,154.194003 107.203569,153.55 C107.203569,153.089998 106.559575,152.078008 105.271569,150.514 L81.6735687,123.328 L70.0815687,132.298 L70.0815687,152.032 Z M154.369784,154.516 C156.761796,154.516 157.957784,153.688008 157.957784,152.032 L157.957784,89.38 C157.957784,87.7239917 156.761796,86.896 154.369784,86.896 L154.369784,84.412 L177.277784,84.412 L177.277784,86.896 C174.885772,86.896 173.689784,87.7239917 173.689784,89.38 L173.689784,152.032 C173.689784,153.688008 174.885772,154.516 177.277784,154.516 L177.277784,157 L154.369784,157 L154.369784,154.516 Z M211.058,154.516 C212.806009,154.516 213.68,153.688008 213.68,152.032 L213.68,89.38 C213.68,87.7239917 212.806009,86.896 211.058,86.896 L211.058,84.412 L234.656,84.412 L234.656,86.896 C233.919996,86.896 233.552,87.3559954 233.552,88.276 C233.552,89.0120037 234.471991,90.2999908 236.312,92.14 L275.918,133.264 L275.918,89.38 C275.918,87.7239917 274.722012,86.896 272.33,86.896 L272.33,84.412 L293.168,84.412 L293.168,86.896 C291.419991,86.896 290.546,87.7239917 290.546,89.38 L290.546,152.032 C290.546,153.688008 291.419991,154.516 293.168,154.516 L293.168,157 L270.812,157 L270.812,154.516 C272.008006,154.516 272.606,154.102004 272.606,153.274 C272.606,152.629997 271.870007,151.572007 270.398,150.1 L228.308,106.216 L228.308,152.032 C228.308,153.688008 229.365989,154.516 231.482,154.516 L231.482,157 L211.058,157 L211.058,154.516 Z M393.464216,106.768 L390.704216,105.94 C390.888217,105.387997 390.980216,104.836003 390.980216,104.284 C390.980216,102.903993 390.129224,101.662006 388.427216,100.558 C386.725207,99.4539945 384.563229,98.5110039 381.941216,97.729 C379.319203,96.9469961 376.467231,96.3720018 373.385216,96.004 C370.3032,95.6359982 367.382229,95.452 364.622216,95.452 C361.218199,95.452 357.837232,95.9349952 354.479216,96.901 C351.121199,97.8670048 348.131229,99.3619899 345.509216,101.386 C342.887203,103.41001 340.771224,106.031984 339.161216,109.252 C337.551208,112.472016 336.746216,116.381977 336.746216,120.982 C336.746216,125.490023 337.551208,129.376984 339.161216,132.643 C340.771224,135.909016 342.887203,138.55399 345.509216,140.578 C348.131229,142.60201 351.121199,144.096995 354.479216,145.063 C357.837232,146.029005 361.218199,146.512 364.622216,146.512 C369.866242,146.512 374.581195,146.075004 378.767216,145.201 C382.953237,144.326996 386.518201,143.384005 389.462216,142.372 L389.462216,130.504 L371.798216,130.504 C370.510209,130.504 369.544219,130.779997 368.900216,131.332 C368.256212,131.884003 367.842217,133.079991 367.658216,134.92 L365.174216,134.92 L365.174216,117.256 L367.658216,117.256 C367.842217,118.820008 368.256212,119.808998 368.900216,120.223 C369.544219,120.637002 370.510209,120.844 371.798216,120.844 L406.298216,120.844 L406.298216,123.328 C404.458206,123.604001 403.308218,123.925998 402.848216,124.294 C402.388213,124.662002 402.158216,125.443994 402.158216,126.64 L402.158216,142.234 C402.158216,143.154005 402.434213,143.751999 402.986216,144.028 C403.538218,144.304001 404.182212,144.625998 404.918216,144.994 L404.918216,147.202 C401.8822,149.318011 398.685232,151.065993 395.327216,152.446 C391.969199,153.826007 388.565233,154.906996 385.115216,155.689 C381.665198,156.471004 378.215233,156.953999 374.765216,157.138 C371.315198,157.322001 367.934232,157.414 364.622216,157.414 C358.182183,157.414 352.317242,156.609008 347.027216,154.999 C341.737189,153.388992 337.206235,150.997016 333.434216,147.823 C329.662197,144.648984 326.741226,140.785023 324.671216,136.231 C322.601205,131.676977 321.566216,126.502029 321.566216,120.706 C321.566216,114.909971 322.601205,109.735023 324.671216,105.181 C326.741226,100.626977 329.662197,96.7400161 333.434216,93.52 C337.206235,90.2999839 341.737189,87.8390085 347.027216,86.137 C352.317242,84.4349915 358.182183,83.584 364.622216,83.584 C368.670236,83.584 372.534197,83.8599972 376.214216,84.412 C379.894234,84.9640028 383.160201,85.5849966 386.012216,86.275 C388.86423,86.9650034 391.233206,87.608997 393.119216,88.207 C395.005225,88.805003 396.178213,89.104 396.638216,89.104 C397.46622,89.104 398.110213,88.9200018 398.570216,88.552 C399.030218,88.1839982 399.490213,87.8620014 399.950216,87.586 L401.606216,88.552 L393.464216,106.768 Z" id="KING" fill="#000000" sketch:type="MSShapeGroup"></path>
    </g>
</svg>